<svg xmlns="http://www.w3.org/2000/svg" xmlns:xlink="http://www.w3.org/1999/xlink" id="eIL1l8PpEWf1" viewBox="0 0 500 500"><defs><linearGradient id="eIL1l8PpEWf5-fill" x1="-998.26001" y1="0.00002" x2="737.950617" y2="1872.431966" spreadMethod="pad" gradientUnits="userSpaceOnUse" gradientTransform="matrix(1 0 0 1 0 0)"><stop id="eIL1l8PpEWf5-fill-0" offset="0%" stop-color="rgb(130,71,229)"></stop><stop id="eIL1l8PpEWf5-fill-1" offset="42.715261%" stop-color="rgb(130,71,229)"></stop><stop id="eIL1l8PpEWf5-fill-2" offset="100%" stop-color="rgb(0,0,0)"></stop></linearGradient><linearGradient id="eIL1l8PpEWf7-fill" x1="-80.949997" y1="0.000909" x2="80.954765" y2="0.000909" spreadMethod="pad" gradientUnits="userSpaceOnUse" gradientTransform="matrix(1 0 0 1 0 0)"><stop id="eIL1l8PpEWf7-fill-0" offset="0%" stop-color="rgb(233,213,0)"></stop><stop id="eIL1l8PpEWf7-fill-1" offset="50%" stop-color="rgb(243,222,0)"></stop><stop id="eIL1l8PpEWf7-fill-2" offset="100%" stop-color="rgb(130,71,229)"></stop></linearGradient></defs><g id="eIL1l8PpEWf2" transform="matrix(1 0 0 1 0 0.000001)"><g id="eIL1l8PpEWf3" transform="matrix(0.2 0 0 0.2 250 242.619995)"><path id="eIL1l8PpEWf4" d="M42.132339,120.747908L62.084267,388.955918L254.109244,497.973057L453.142248,383.261317L444.163877,143.175109L248.688623,7.139164L42.132339,120.747908Z" transform="matrix(4.320883 0 0 3.907987 -1074.554449 -986.747084)" fill="rgb(255,255,255)" stroke="rgb(63,87,135)" stroke-width="1"></path><path id="eIL1l8PpEWf5" d="M812.60371,-122.91865L812.60371,417.70114C812.60371,431.29114,750.38008,474.56999,738.60008,481.35999L50.60897,844.95178C38.83897,851.75178,-19.40812,851.75178,-31.17812,844.95178L-699.67246,481.35999C-723.58246,467.55999,-746.61292,377.32,-724.23292,361.17L-109.44812,-26.19001C-82.25812,-45.81001,-65.928545,-32.961087,-70.618545,0.238913L-70.618545,320.10365C-75.588545,355.32365,-57.56812,385.00999,-31.17812,361.16999L952.23188,-427.22063L988.93687,-568.24261C983.126105,-572.995345,979.23187,-584.79001,952.23188,-600.38001L23.43188,-1136.63001C11.66188,-1143.43001,-2.84812,-1143.43001,-14.61812,-1136.63001L-970.42812,-584.79001C-982.19812,-577.99001,-989.45812,-565.43001,-989.45812,-551.84001L-989.45812,346.51999C-989.45812,346.51999,-1018.76829,559.67636,-970.42812,584.78999C-922.08795,609.90362,-957.79778,570.98867,-928.36531,533.28749C-892.95241,487.92575,-850.89164,429.43165,-837.4518,417.70114L-737.14825,346.51999L23.42187,-294.33689L117.91577,-390.0922L-235.86464,-166.41634L-724.23292,154.56728C-749.46292,172.10728,-762.97128,99.41828,-762.97128,68.69828L-762.97128,-427.22063C-762.97128,-440.81063,-711.45247,-482.2166,-699.67247,-489.0066L-49.50813,-829.62134C-37.73813,-836.42134,22.74298,-836.42134,34.51298,-829.62134L738.60007,-467.72157C762.39007,-453.98157,760.75007,-406.34219,738.60007,-390.09219L193.50187,-15.74C166.37187,4.15,128.67187,-18.35,133.31187,-51.67L175.15187,-352.38C180.00187,-387.25,138.97187,-409.44,112.44187,-386.29L50.60896,-335.17227L-970.42813,450.65291L-961.54461,562.50251C-949.39461,553.74251,-983.79882,576.56189,-983.79882,576.56189L-14.62813,1136.63C-2.85813,1143.43,11.65187,1143.43,23.42187,1136.63L979.23187,584.79C991.00187,577.99,998.26187,565.43,998.26187,551.84L998.26187,-339.33L988.93686,-568.2426C859.787845,-467.72157,846.91187,-373.86,822.29187,-352.38L-49.50813,361.17L-31.17813,361.17L34.51298,320.10365L133.31187,261.12915L738.60007,-166.41633C763.85007,-183.95633,812.6037,-153.64864,812.6037,-122.91864Z" fill="url(#eIL1l8PpEWf5-fill)" stroke="rgb(130,71,229)" stroke-width="0"></path></g></g><g id="eIL1l8PpEWf6" transform="matrix(1.85 0 0 1.85 250 240.850006)" opacity="0.94"><path id="eIL1l8PpEWf7" d="M-80.95238,23.00973L-80.95238,36.91091L-3.57143,-11.51408L-3.57143,32.53354L80.95238,-22.62519L80.95238,-36.9109L9.92063,10.31132L12.39661,-33.7363Z" fill="url(#eIL1l8PpEWf7-fill)" stroke="rgb(0,0,0)" stroke-width="0"></path></g><path id="eIL1l8PpEWf8" d="" fill="none" stroke="rgb(63,87,135)" stroke-width="1"></path></svg>